# xmcd CD database file
# Copyright (C) 1993-1998 Ti Kan
#
# Track frame offsets:
#	150
#	15677
#	28630
#	45780
#	58177
#	71690
#	81707
#	91982
#	104567
#	116050
#	127952
#	143670
#	157882
#	168245
#	184657
#	200870
#	213142
#	229510
#	245952
#	260359
#	273647
#	290617
#
# Disc length: 4055 seconds
#
# Revision: 1
# Processed by: cddbd v1.4b41PL1 Copyright (c) Steve Scherf et al.
# Submitted via: CDValet v3.01 - Copyright (c) 1997 Greg Leichner
#
DISCID=430fd516
DTITLE=Rolando Boldrin E Almir Sater - Dose Dupla - Rolando Boldrin E Almir Sa
DTITLE=ter
DYEAR=1900
DGENRE=
TTITLE0=Deixei De Ser Carreiro
TTITLE1=Um Agradinho E Bom
TTITLE2=Adeus Nho Pai
TTITLE3=Morena Minha Morena
TTITLE4=Viola Quebrada
TTITLE5=Ti-pi-tin
TTITLE6=Morena Por Mal Dos Pecados
TTITLE7=Destinos Iguais 
TTITLE8=Minha Viola
TTITLE9=Prece Ao Minuano
TTITLE10=Caçada
TTITLE11=Eta Pais Da America
TTITLE12=Chalana
TTITLE13=Boiero Do Nabileque
TTITLE14=Missões Naturais
TTITLE15=Capim De Ribanceira
TTITLE16=Estradeiro
TTITLE17=Um Violeiro Toca
TTITLE18=Rasta Bonito
TTITLE19=Semente
TTITLE20=Boiada
TTITLE21=Flor Do Amor
EXTD=
EXTT0=
EXTT1=
EXTT2=
EXTT3=
EXTT4=
EXTT5=
EXTT6=
EXTT7=
EXTT8=
EXTT9=
EXTT10=
EXTT11=
EXTT12=
EXTT13=
EXTT14=
EXTT15=
EXTT16=
EXTT17=
EXTT18=
EXTT19=
EXTT20=
EXTT21=
PLAYORDER=
